<?xml version="1.0" encoding="UTF-8"?>
<svg version="1.1" xmlns="http://www.w3.org/2000/svg" width="200" height="200">
<path d="M0 0 C66 0 132 0 200 0 C200 66 200 132 200 200 C134 200 68 200 0 200 C0 134 0 68 0 0 Z " fill="#060606" transform="translate(0,0)"/>
<path d="M0 0 C9.09878825 6.53648581 14.5416815 13.89975764 16.60284424 24.89846802 C17.44694176 31.49032876 17.32968425 38.14200633 17.3359375 44.77734375 C17.34237954 46.39579888 17.3491089 48.01425288 17.35610962 49.63270569 C17.36802331 53.01061705 17.37179638 56.38842657 17.37060547 59.76635742 C17.37040217 64.06766724 17.397742 68.36831723 17.43214989 72.66947079 C17.4545188 76.007766 17.45844003 79.3459046 17.45738602 82.68426704 C17.45972551 84.26890913 17.46845444 85.85355664 17.48405075 87.4381237 C17.58468261 98.71325924 16.51413852 108.64591086 9.875 118.1875 C9.37742187 118.92355469 8.87984375 119.65960938 8.3671875 120.41796875 C7.91601562 120.94003906 7.46484375 121.46210938 7 122 C6.34 122 5.68 122 5 122 C5 122.66 5 123.32 5 124 C-4.25067602 130.97591962 -13.54119315 133.19482534 -25 132 C-30.4435844 130.61174921 -35.12950052 129.17606523 -39 125 C-39.763125 124.5875 -40.52625 124.175 -41.3125 123.75 C-48.37866543 119.148776 -52.0208295 112.1954684 -54.5365448 104.32043457 C-55.17681772 101.11470636 -55.15234381 98.02871705 -55.17700195 94.75976562 C-55.18357315 94.03718567 -55.19014435 93.31460571 -55.19691467 92.57012939 C-55.21659758 90.18216839 -55.22830324 87.79427035 -55.23828125 85.40625 C-55.24235678 84.58642136 -55.2464323 83.76659271 -55.25063133 82.92192078 C-55.2714775 78.57685602 -55.2857817 74.23182265 -55.29516602 69.88671875 C-55.30618689 65.42619723 -55.34054038 60.96618055 -55.38033772 56.50583649 C-55.40665294 53.05341753 -55.41487129 49.60111574 -55.41844749 46.14860535 C-55.42328037 44.50616574 -55.43479867 42.86373018 -55.45348549 41.22138977 C-55.58919645 28.49627375 -54.54621798 17.06733403 -45.984375 6.96875 C-42.66377947 3.67430089 -39.09271158 1.24022108 -35 -1 C-34.40960938 -1.3403125 -33.81921875 -1.680625 -33.2109375 -2.03125 C-23.50669983 -6.64824413 -9.08260848 -5.21409005 0 0 Z " fill="#7F7F7F" transform="translate(119,36)"/>
<path d="M0 0 C0.66 0.33 1.32 0.66 2 1 C-2.42442592 4.71080883 -7.17403931 7.84577733 -12 11 C-12.33 10.34 -12.66 9.68 -13 9 C-9.25 6 -9.25 6 -7 6 C-7 5.34 -7 4.68 -7 4 C-1.7265625 0.77734375 -1.7265625 0.77734375 0 0 Z " fill="#B9B9B9" transform="translate(87,101)"/>
<path d="M0 0 C1.9375 0.8125 1.9375 0.8125 4 2 C4.33 2.99 4.66 3.98 5 5 C2.525 6.485 2.525 6.485 0 8 C0 5.36 0 2.72 0 0 Z " fill="#9C9C9C" transform="translate(121,39)"/>
</svg>
